<svg width="320" height="88" viewBox="0 0 320 88" fill="none" xmlns="http://www.w3.org/2000/svg" role="img" aria-labelledby="title desc">
  <title id="title">GokottaMaker Logo Option 3</title>
  <desc id="desc">A sharp GM monogram with a rising signal line for pioneering electronics work.</desc>
  <defs>
    <linearGradient id="gm3-blue" x1="14" y1="14" x2="78" y2="74" gradientUnits="userSpaceOnUse">
      <stop stop-color="#00C2FF"/>
      <stop offset="0.6" stop-color="#0D6FD3"/>
      <stop offset="1" stop-color="#052D73"/>
    </linearGradient>
  </defs>
  <path d="M18 22C18 15.4 23.4 10 30 10H66C72.6 10 78 15.4 78 22V66C78 72.6 72.6 78 66 78H30C23.4 78 18 72.6 18 66V22Z" fill="#F4FAFF"/>
  <path d="M23 66V24H36L48 46L60 24H73V66H62V42L51.7 60H44.3L34 42V66H23Z" fill="url(#gm3-blue)"/>
  <path d="M30 58L43 45L51 53L69 35" stroke="white" stroke-width="4.4" stroke-linecap="round" stroke-linejoin="round"/>
  <path d="M61 35H69V43" stroke="white" stroke-width="4.4" stroke-linecap="round" stroke-linejoin="round"/>
  <text x="94" y="43" fill="#0B1220" font-family="Inter, Segoe UI, Microsoft YaHei, Arial, sans-serif" font-size="28" font-weight="850" letter-spacing="0">Gokotta</text>
  <text x="203" y="43" fill="#0D6FD3" font-family="Inter, Segoe UI, Microsoft YaHei, Arial, sans-serif" font-size="28" font-weight="850" letter-spacing="0">Maker</text>
  <text x="96" y="63" fill="#64748B" font-family="Inter, Segoe UI, Microsoft YaHei, Arial, sans-serif" font-size="12" font-weight="700" letter-spacing="1.8">BUILD THE NEXT BOARD</text>
</svg>
