<svg width="320" height="88" viewBox="0 0 320 88" fill="none" xmlns="http://www.w3.org/2000/svg" role="img" aria-labelledby="title desc">
  <title id="title">GokottaMaker Logo Option 19</title>
  <desc id="desc">A flat blue hex badge with a white source branch and compact hardware pins.</desc>
  <path d="M46 10L75.4 27V61L46 78L16.6 61V27L46 10Z" fill="#0D6FD3"/>
  <path d="M23 33H16.6V27L23 23.3" stroke="#7DD3FC" stroke-width="3.2" stroke-linecap="round"/>
  <path d="M23 55H16.6V61L23 64.7" stroke="#7DD3FC" stroke-width="3.2" stroke-linecap="round"/>
  <path d="M69 33H75.4V27L69 23.3" stroke="#7DD3FC" stroke-width="3.2" stroke-linecap="round"/>
  <path d="M69 55H75.4V61L69 64.7" stroke="#7DD3FC" stroke-width="3.2" stroke-linecap="round"/>
  <path d="M31.5 50V37.2C31.5 31.7 35.8 27.4 41.3 27.4H56" stroke="#FFFFFF" stroke-width="5" stroke-linecap="round"/>
  <path d="M55 27.4L63 35.4L55 43.4" stroke="#FFFFFF" stroke-width="5" stroke-linecap="round" stroke-linejoin="round"/>
  <path d="M31.5 50L46 58L60.5 50" stroke="#D9F99D" stroke-width="3.4" stroke-linecap="round" stroke-linejoin="round"/>
  <circle cx="31.5" cy="50" r="4.3" fill="#D9F99D"/>
  <circle cx="46" cy="58" r="4.3" fill="#FFFFFF"/>
  <circle cx="60.5" cy="50" r="4.3" fill="#D9F99D"/>
  <text x="94" y="43" fill="#0B1220" font-family="Inter, Segoe UI, Microsoft YaHei, Arial, sans-serif" font-size="28" font-weight="850" letter-spacing="0">Gokotta</text>
  <text x="203" y="43" fill="#0D6FD3" font-family="Inter, Segoe UI, Microsoft YaHei, Arial, sans-serif" font-size="28" font-weight="850" letter-spacing="0">Maker</text>
  <text x="96" y="63" fill="#64748B" font-family="Inter, Segoe UI, Microsoft YaHei, Arial, sans-serif" font-size="12" font-weight="700" letter-spacing="1.8">OPEN BOARD SYSTEMS</text>
</svg>
