<svg width="340" height="96" viewBox="0 0 340 96" fill="none" xmlns="http://www.w3.org/2000/svg" role="img" aria-labelledby="title desc">
  <title id="title">Larkix Bird Wing Variant 2 - Wide Wing</title>
  <desc id="desc">A wider flying bird mark with two readable wings and a subtle X-shaped opening.</desc>
  <path d="M12.5 52.6C30.2 29.9 54.4 19.3 82.8 24.8C65.1 36.2 49.5 48.5 36.1 61.8C28.4 60.2 20.5 57.1 12.5 52.6Z" fill="#2563EB"/>
  <path d="M25.8 72.1C46.6 64.6 63.9 52.4 77.8 35.4C75.3 57.8 58.1 75.9 33 83C30.2 80.1 27.8 76.5 25.8 72.1Z" fill="#38BDF8"/>
  <path d="M39.5 59.1C49.2 48.9 61.3 38.5 75.9 27.8" stroke="#FFFFFF" stroke-width="5.4" stroke-linecap="round"/>
  <path d="M22.8 38.2C38.5 42.4 52.7 49.7 65.6 60" stroke="#1E3A8A" stroke-width="5.4" stroke-linecap="round"/>
  <circle cx="67.5" cy="28.7" r="5.2" fill="#2563EB"/>
  <path d="M72.2 26.4L85 20.5L76.5 31.3Z" fill="#F59E0B"/>
  <path d="M18.5 57.6L8.8 62.2L20.8 65.7" fill="#1E3A8A"/>
  <text x="112" y="58" fill="#0F172A" font-family="Inter, Segoe UI, Microsoft YaHei, Arial, sans-serif" font-size="38" font-weight="780" letter-spacing="0">Larki<tspan fill="#2563EB" font-weight="860">x</tspan></text>
  <path d="M218 66C226 64.6 233 60.4 238.5 53.4" stroke="#38BDF8" stroke-width="3" stroke-linecap="round"/>
</svg>
